<?xml version="1.0" standalone="no"?>
<!DOCTYPE svg PUBLIC "-//W3C//DTD SVG 20010904//EN"
 "http://www.w3.org/TR/2001/REC-SVG-20010904/DTD/svg10.dtd">
<svg version="1.0" xmlns="http://www.w3.org/2000/svg"
 width="858.000000pt" height="864.000000pt" viewBox="0 0 858.000000 864.000000"
 preserveAspectRatio="xMidYMid meet">

<g transform="translate(0.000000,864.000000) scale(0.100000,-0.100000)"
fill="#000000" stroke="none">
<path d="M4176 7804 c-68 -21 -146 -100 -169 -173 -22 -68 -21 -89 4 -173 15
-52 30 -79 60 -109 21 -21 47 -39 57 -39 38 0 43 -34 40 -295 l-3 -250 -25 -1
c-71 -2 -203 -18 -260 -31 -62 -13 -79 -18 -175 -48 -22 -7 -67 -20 -100 -30
-94 -28 -163 -56 -176 -71 -6 -8 -17 -14 -25 -14 -10 0 -11 6 -2 30 16 47 4
70 -70 144 -111 110 -251 200 -342 219 -25 5 -132 12 -237 14 l-193 4 0 33 c0
41 -27 121 -56 166 -32 50 -121 134 -174 162 -101 55 -232 74 -319 47 -84 -25
-164 -75 -217 -133 -82 -90 -98 -131 -102 -253 -5 -141 18 -202 114 -305 73
-79 122 -113 190 -134 l62 -19 6 -65 c3 -36 6 -123 6 -195 0 -178 11 -233 61
-319 96 -164 190 -280 271 -337 20 -14 21 -20 11 -40 -16 -33 -87 -241 -108
-314 -32 -118 -36 -131 -46 -200 -5 -38 -13 -100 -16 -137 l-6 -68 -313 0
-314 0 -20 43 c-37 75 -92 123 -174 151 -62 20 -85 20 -158 0 -42 -12 -74 -30
-109 -62 -59 -53 -78 -86 -96 -170 -14 -69 -4 -132 35 -209 42 -82 151 -153
236 -153 104 0 221 70 268 160 27 51 18 50 336 50 336 0 312 6 312 -78 0 -141
78 -438 167 -630 18 -39 33 -75 33 -80 0 -4 -29 -27 -65 -51 -92 -62 -192
-166 -261 -268 l-59 -88 -4 -243 -3 -243 -37 -16 c-86 -36 -166 -81 -205 -114
-87 -77 -135 -196 -136 -336 0 -141 79 -287 209 -387 87 -67 130 -79 258 -74
97 4 115 7 175 37 37 18 82 47 100 64 74 71 142 184 153 255 14 89 -9 79 212
87 109 3 209 10 223 15 14 4 52 16 85 25 102 30 192 83 281 168 45 43 89 91
96 107 8 19 19 28 28 26 17 -5 139 -41 210 -61 123 -37 219 -53 375 -64 l90
-6 -3 -329 c-1 -181 -5 -333 -8 -337 -3 -5 -23 -18 -45 -30 -54 -27 -114 -92
-145 -159 -35 -74 -32 -187 8 -270 101 -211 324 -268 500 -129 118 94 163 274
102 403 -31 65 -102 135 -167 164 l-47 21 2 328 3 328 115 12 c63 6 129 14
145 18 17 3 64 13 105 22 73 15 215 56 255 73 11 5 46 20 78 34 32 14 63 26
70 26 8 0 23 -17 35 -37 11 -21 62 -78 112 -128 51 -49 97 -102 104 -117 l12
-27 42 21 c24 13 126 106 247 228 217 218 264 274 225 272 -11 0 -124 146
-152 198 l-30 55 23 15 c33 21 62 52 131 140 32 41 62 80 67 85 4 6 25 46 47
89 36 74 39 77 49 55 13 -31 44 -78 72 -109 13 -14 23 -30 23 -37 0 -6 3 -13
8 -15 26 -12 104 -157 132 -248 26 -81 148 -181 191 -154 12 7 11 151 -2 216
-21 107 -60 173 -183 313 -39 44 -76 86 -83 93 -7 7 -29 33 -49 58 l-37 45 17
52 c10 29 22 61 26 72 27 60 63 187 100 350 6 27 14 104 17 171 l6 122 96 8
c53 4 199 7 325 8 l230 1 25 -50 c39 -75 107 -137 173 -158 64 -20 89 -21 137
-6 122 38 184 102 217 226 15 60 4 153 -27 214 -30 59 -109 124 -177 143 -73
20 -92 20 -161 -1 -63 -20 -128 -77 -156 -137 -10 -21 -26 -38 -39 -41 -52
-10 -624 -16 -630 -6 -4 6 -11 59 -16 118 -14 161 -56 327 -140 558 l-22 60
77 80 c43 44 109 121 146 170 38 50 81 105 96 124 l28 34 0 250 0 251 100 53
c56 29 114 69 132 88 17 20 55 84 83 143 l53 106 -5 80 c-20 320 -389 515
-648 343 -112 -74 -200 -202 -200 -290 0 -25 -6 -49 -13 -55 -7 -6 -82 -13
-172 -15 -194 -6 -261 -17 -323 -53 -141 -82 -322 -269 -322 -333 0 -11 -2
-21 -4 -21 -2 0 -40 15 -83 33 -224 96 -493 167 -629 167 -60 0 -72 3 -75 18
-2 9 -2 126 1 260 l5 243 25 19 c14 11 36 22 50 25 52 12 110 134 110 231 0
69 -22 117 -79 173 -78 76 -184 99 -295 65z m-1451 -1005 c144 -18 257 -42
304 -65 88 -42 266 -190 253 -210 -4 -6 -56 -41 -117 -79 -60 -38 -139 -91
-175 -118 -115 -89 -270 -249 -369 -382 -114 -152 -125 -163 -144 -143 -42 43
-111 138 -167 229 l-63 104 -2 212 -2 211 57 16 c79 22 119 57 187 159 l58 87
50 -5 c27 -3 86 -10 130 -16z m3257 -1 c8 -7 30 -35 48 -63 48 -74 131 -148
207 -187 l68 -34 -4 -89 c-1 -50 -4 -144 -5 -210 -1 -81 -6 -128 -15 -145 -48
-85 -224 -290 -250 -290 -12 0 -33 28 -85 112 -71 115 -199 259 -341 382 -98
85 -277 208 -331 228 -19 7 -34 15 -34 18 0 3 15 14 33 25 17 10 59 42 93 70
88 74 192 140 244 154 38 11 245 36 331 40 14 0 32 -5 41 -11z m-1464 -413
c219 -34 414 -100 591 -202 251 -144 403 -286 563 -528 130 -196 195 -361 247
-625 40 -201 3 -630 -70 -820 -11 -30 -23 -64 -26 -74 -22 -73 -182 -350 -252
-436 -62 -77 -252 -258 -334 -318 -247 -181 -626 -301 -956 -302 -235 0 -508
63 -731 169 -29 14 -92 49 -188 106 -81 48 -261 195 -320 262 -92 105 -172
214 -172 234 0 5 -3 9 -7 9 -5 0 -13 10 -19 23 -6 12 -28 56 -50 97 -103 196
-148 342 -175 570 -14 118 -5 430 14 520 20 90 36 151 47 175 5 11 16 47 26
80 9 33 21 65 24 70 4 6 11 25 15 44 7 33 50 120 65 131 3 3 10 12 14 20 29
62 111 172 188 251 82 86 199 194 242 224 16 11 40 29 55 41 44 35 153 100
211 126 30 14 76 35 102 47 26 11 54 21 62 21 8 0 17 4 20 9 3 5 16 11 28 14
13 2 50 12 83 22 158 44 218 52 413 54 128 1 225 -4 290 -14z m-1958 -2720
c62 -97 147 -210 207 -276 136 -150 206 -211 364 -318 58 -39 116 -82 128 -95
23 -24 23 -27 8 -58 -22 -45 -127 -138 -157 -138 -5 0 -10 -3 -10 -8 0 -8 -36
-25 -100 -45 -47 -15 -363 -42 -414 -36 -16 2 -33 11 -37 19 -4 8 -18 37 -30
63 -41 86 -132 160 -257 207 -20 8 -35 21 -38 37 -4 13 -5 109 -2 213 l4 189
47 69 c59 86 211 232 242 232 5 0 26 -25 45 -55z"/>
<path d="M3525 5816 c-22 -7 -47 -15 -55 -19 -8 -3 -26 -11 -40 -16 -41 -15
-146 -96 -176 -138 -16 -21 -31 -40 -34 -43 -4 -3 -25 -43 -48 -90 l-42 -86 0
-116 c0 -124 11 -183 57 -303 26 -66 83 -184 113 -232 12 -19 11 -27 -12 -70
-50 -93 -120 -287 -139 -387 -21 -112 -24 -165 -9 -210 5 -17 16 -54 24 -83
63 -210 264 -355 492 -355 74 -1 235 22 249 33 5 5 19 9 30 9 31 0 177 53 263
96 l73 36 32 -24 c18 -14 62 -39 98 -56 61 -30 94 -42 214 -78 29 -9 110 -18
191 -21 176 -7 261 13 369 87 95 66 181 193 216 320 16 58 16 166 1 255 -25
150 -117 382 -155 393 -39 11 -42 80 -3 95 14 6 46 61 46 80 0 6 25 61 55 122
30 62 55 122 55 133 0 11 5 24 10 27 14 8 13 219 -1 264 -20 67 -74 164 -117
212 -43 49 -147 120 -192 133 -14 4 -34 11 -45 16 -77 33 -220 39 -330 14 -39
-8 -90 -20 -115 -25 -25 -5 -54 -13 -65 -18 -11 -5 -42 -17 -70 -26 -27 -9
-57 -20 -65 -25 -9 -4 -30 -11 -47 -14 -17 -4 -39 -16 -49 -27 -19 -21 -36
-24 -62 -9 -41 24 -194 90 -208 90 -8 0 -22 4 -32 10 -9 5 -39 14 -67 20 -27
6 -70 16 -95 21 -71 16 -269 19 -315 5z m1513 -222 c37 -18 64 -41 92 -79 22
-30 40 -60 40 -68 0 -7 5 -18 12 -25 6 -6 14 -50 16 -97 5 -94 -7 -142 -69
-290 -4 -11 -12 -36 -17 -55 -13 -54 -33 -47 -82 32 -57 91 -170 228 -244 295
-32 29 -112 89 -179 134 -67 44 -122 86 -122 92 0 30 146 76 275 87 129 12
216 3 278 -26z m-1165 7 c99 -29 186 -72 167 -83 -8 -5 -49 -28 -90 -51 -134
-76 -294 -221 -370 -336 -49 -74 -132 -181 -140 -181 -5 0 -11 10 -15 23 -3
12 -10 31 -15 42 -16 34 -58 168 -64 205 -4 19 -12 54 -18 77 -7 30 -7 51 0
70 6 16 13 45 17 67 8 47 82 123 158 161 46 23 62 25 176 25 95 0 143 -5 194
-19z m504 -260 c10 -5 33 -15 52 -22 43 -16 179 -116 234 -173 23 -23 59 -64
80 -91 85 -111 217 -294 217 -301 0 -4 -10 -21 -23 -38 -12 -17 -31 -48 -42
-68 -11 -21 -23 -38 -27 -38 -5 0 -8 -5 -8 -10 0 -14 -33 -61 -91 -130 -25
-30 -56 -68 -70 -85 -86 -106 -175 -171 -349 -254 -8 -4 -28 -15 -45 -25 -34
-19 -14 -28 -230 99 -168 98 -289 226 -413 433 -18 29 -32 54 -32 57 0 3 -9
14 -20 25 -31 31 -13 94 46 159 12 13 42 62 68 110 31 60 64 105 103 142 65
62 205 156 273 183 25 10 54 22 65 27 11 4 29 10 40 13 30 7 151 -1 172 -13z
m-902 -789 c6 -4 19 -23 29 -42 16 -28 83 -117 106 -140 3 -3 25 -32 50 -65
24 -33 58 -73 74 -89 63 -63 202 -167 269 -201 40 -21 48 -42 20 -51 -10 -3
-27 -10 -38 -14 -110 -46 -235 -72 -340 -73 -89 -1 -106 2 -151 26 -64 32
-114 89 -138 156 -15 42 -17 74 -15 170 2 65 9 124 15 132 6 8 18 37 28 64 23
67 37 96 55 118 16 19 21 20 36 9z m1630 -38 c11 -21 22 -41 26 -44 8 -8 35
-88 49 -149 7 -29 13 -94 13 -145 1 -82 -1 -96 -27 -141 -69 -122 -160 -175
-303 -175 -70 0 -100 5 -228 37 -76 19 -167 62 -162 77 1 6 27 23 57 39 100
50 171 99 237 161 69 63 217 252 266 338 16 27 34 47 40 45 7 -2 21 -21 32
-43z"/>
<path d="M4313 5053 c9 -2 23 -2 30 0 6 3 -1 5 -18 5 -16 0 -22 -2 -12 -5z"/>
<path d="M4378 5033 c7 -3 16 -2 19 1 4 3 -2 6 -13 5 -11 0 -14 -3 -6 -6z"/>
<path d="M4463 4990 c14 -11 29 -20 33 -20 4 0 -3 9 -16 20 -13 11 -27 20 -33
20 -5 0 2 -9 16 -20z"/>
<path d="M7155 6107 c-50 -20 -86 -49 -113 -91 -22 -34 -26 -53 -26 -111 0
-82 25 -139 77 -179 59 -45 166 -72 182 -46 3 6 14 10 24 10 62 0 151 125 151
212 0 73 -73 178 -135 194 -14 3 -28 10 -31 15 -7 13 -93 10 -129 -4z"/>
<path d="M8565 3415 c0 -742 1 -1048 2 -678 2 369 2 977 0 1350 -1 373 -2 71
-2 -672z"/>
<path d="M7133 3968 c-51 -17 -145 -99 -180 -158 -30 -49 -33 -62 -33 -133 0
-62 5 -89 25 -130 57 -122 128 -167 260 -167 160 0 294 132 298 292 0 36 -4
72 -10 80 -5 7 -13 25 -16 39 -12 48 -84 117 -161 154 -76 37 -122 42 -183 23z
m156 -204 c16 -21 21 -41 21 -90 0 -58 -2 -64 -29 -83 -35 -25 -71 -27 -114
-4 -46 23 -56 41 -57 101 0 75 28 102 104 102 47 0 57 -4 75 -26z"/>
<path d="M1290 3726 c-68 -38 -92 -135 -50 -203 22 -37 41 -48 95 -57 65 -11
119 19 145 81 13 31 2 83 -16 76 -8 -3 -14 0 -14 5 0 6 -11 23 -25 38 -14 15
-25 22 -25 15 0 -19 -17 -12 -48 19 -34 34 -19 41 32 15 36 -19 41 -19 21 1
-22 22 -84 27 -115 10z"/>
<path d="M6178 2974 c-120 -109 -475 -463 -544 -543 l-63 -73 27 -37 c73 -97
240 -269 432 -444 79 -73 197 -186 262 -252 225 -230 243 -248 283 -274 48
-32 147 -61 211 -61 111 0 250 56 322 130 50 52 125 161 148 215 21 51 29 220
15 329 -8 70 -16 96 -38 125 -52 70 -486 493 -608 592 -48 39 -196 188 -275
277 -40 45 -79 82 -86 82 -7 0 -45 -30 -86 -66z"/>
<path d="M2050 1751 c-55 -30 -82 -65 -87 -113 -9 -89 89 -188 187 -188 31 0
61 7 76 17 38 25 74 87 74 128 0 81 -99 176 -182 175 -18 -1 -49 -9 -68 -19z"/>
</g>
</svg>
