<?xml version="1.0" standalone="no"?>
<!DOCTYPE svg PUBLIC "-//W3C//DTD SVG 20010904//EN"
 "http://www.w3.org/TR/2001/REC-SVG-20010904/DTD/svg10.dtd">
<svg version="1.0" xmlns="http://www.w3.org/2000/svg"
 width="2122.000000pt" height="2122.000000pt" viewBox="0 0 2122.000000 2122.000000"
 preserveAspectRatio="xMidYMid meet">

<g transform="translate(0.000000,2122.000000) scale(0.100000,-0.100000)"
fill="#000000" stroke="none">
<path d="M10493 20546 c-168 -32 -305 -101 -424 -214 -348 -327 -370 -855 -51
-1193 327 -348 855 -370 1193 -51 444 418 335 1127 -212 1387 -151 71 -354
100 -506 71z"/>
<path d="M4110 19324 c-250 -29 -461 -106 -637 -235 -210 -153 -431 -456 -516
-709 -84 -248 -90 -544 -16 -785 93 -305 298 -563 579 -730 97 -57 93 -50 65
-105 -92 -182 -145 -419 -145 -650 1 -269 56 -496 177 -720 109 -203 131 -227
966 -1074 l539 -545 -63 -158 c-217 -549 -343 -1094 -401 -1733 -16 -179 -16
-737 1 -920 61 -686 223 -1343 468 -1893 l26 -58 -374 -377 c-731 -736 -964
-976 -1021 -1057 -105 -149 -199 -352 -243 -525 -82 -320 -51 -702 81 -989 19
-41 34 -77 34 -82 0 -4 -29 -23 -64 -43 -436 -244 -696 -738 -648 -1229 43
-429 267 -776 653 -1008 190 -114 404 -172 639 -172 225 -1 392 38 584 136
226 116 432 319 547 541 19 36 38 66 42 66 4 0 21 -7 38 -15 80 -42 263 -94
404 -116 94 -14 322 -14 421 1 263 39 499 138 715 301 43 33 370 355 762 750
l686 693 33 -11 c18 -6 104 -36 190 -67 469 -165 954 -267 1508 -318 179 -16
737 -16 920 1 511 45 1057 157 1444 295 l97 35 567 -551 c312 -303 599 -582
637 -620 l71 -68 1059 1090 c583 599 1060 1093 1060 1097 0 5 -187 190 -415
412 -228 222 -416 408 -418 413 -2 4 43 68 100 140 252 322 422 584 610 943
373 713 582 1440 660 2295 16 179 16 737 -1 920 -57 652 -189 1205 -421 1780
l-63 155 614 610 c655 649 676 674 783 875 124 236 177 450 177 716 0 239 -32
390 -136 642 -10 23 -16 44 -14 45 2 2 36 21 74 42 179 98 304 217 472 448
141 194 182 263 232 392 60 152 84 281 84 455 1 163 -12 252 -55 390 -137 433
-507 765 -958 861 -124 26 -350 31 -470 10 -256 -45 -506 -177 -687 -362 -86
-89 -275 -339 -340 -450 -25 -44 -51 -78 -57 -75 -113 51 -233 94 -321 116
-463 117 -949 13 -1322 -282 -43 -34 -274 -255 -513 -492 -239 -237 -521 -515
-626 -619 l-192 -189 -83 32 c-491 190 -1056 317 -1659 372 -179 16 -737 16
-920 -1 -617 -54 -1174 -182 -1698 -388 l-93 -37 -441 450 c-904 920 -947 961
-1133 1068 -265 152 -605 227 -900 198 -133 -14 -279 -46 -393 -87 -41 -15
-75 -25 -76 -23 -2 2 -25 45 -51 96 -172 336 -502 586 -871 661 -97 20 -292
33 -364 25z m2150 -1207 c52 -13 126 -39 164 -56 162 -73 201 -108 831 -746
l595 -603 -173 -98 c-475 -270 -861 -562 -1251 -944 -390 -383 -724 -814 -989
-1275 -38 -66 -72 -124 -76 -128 -10 -10 -1142 1138 -1210 1228 -248 329 -271
786 -57 1148 l28 47 68 0 c97 0 280 33 385 70 332 116 582 347 764 703 70 138
107 247 127 380 28 183 21 168 94 204 151 75 292 104 475 99 97 -3 154 -10
225 -29z m9080 -71 c84 -23 246 -95 291 -129 12 -9 19 -44 28 -139 13 -154 38
-264 86 -383 135 -335 408 -597 753 -724 106 -39 200 -59 333 -71 130 -11 121
-4 179 -125 169 -348 130 -764 -99 -1067 -42 -55 -1079 -1088 -1100 -1096 -5
-2 -35 43 -67 100 -386 683 -1001 1361 -1678 1848 -219 157 -536 352 -708 436
-32 16 -58 33 -58 39 0 18 1086 1084 1163 1142 116 88 280 159 437 188 116 22
320 13 440 -19z m-4395 -1961 c599 -51 1128 -194 1653 -445 1356 -652 2319
-1923 2581 -3410 106 -602 87 -1276 -54 -1876 -275 -1167 -990 -2189 -1995
-2849 -828 -543 -1785 -803 -2791 -756 -345 16 -591 52 -911 131 -1763 439
-3119 1881 -3457 3675 -144 765 -93 1575 145 2307 537 1650 1937 2867 3644
3167 381 67 816 88 1185 56z m-5344 -7901 c406 -621 924 -1162 1523 -1594 224
-160 533 -350 719 -441 37 -18 67 -37 67 -41 0 -9 -982 -1006 -1138 -1156
-112 -108 -187 -162 -303 -217 -298 -140 -639 -134 -920 18 l-57 30 -6 86
c-21 268 -104 491 -262 701 -150 199 -344 345 -580 439 -121 48 -211 68 -374
84 l-124 12 -43 82 c-86 162 -125 314 -124 493 0 232 66 432 200 610 27 36
311 330 631 653 l583 588 61 -108 c34 -59 101 -167 147 -239z"/>
<path d="M8500 14684 c-140 -21 -191 -32 -290 -61 -567 -170 -899 -663 -900
-1338 0 -503 172 -1089 496 -1687 41 -76 74 -143 74 -150 0 -6 -35 -70 -77
-142 -366 -621 -563 -1229 -563 -1741 1 -436 113 -740 369 -995 280 -280 650
-404 1156 -387 486 16 989 163 1591 464 l212 106 152 -83 c337 -182 727 -343
1007 -415 751 -195 1366 -86 1739 308 162 170 269 381 324 642 28 130 38 443
20 607 -44 412 -195 876 -436 1348 l-95 186 39 64 c161 266 311 585 411 874
273 790 210 1447 -176 1857 -197 208 -447 335 -778 395 -124 22 -492 26 -630
6 -440 -63 -832 -189 -1316 -423 l-166 -81 -64 39 c-117 72 -347 193 -492 260
-408 187 -760 295 -1110 338 -109 13 -427 19 -497 9z m535 -475 c232 -38 489
-116 758 -230 121 -52 368 -172 405 -197 10 -7 -29 -38 -145 -117 -657 -448
-1300 -1048 -1766 -1652 -56 -72 -105 -132 -108 -132 -9 -1 -132 261 -187 399
-135 339 -206 629 -221 900 -31 558 180 905 618 1016 185 47 407 52 646 13z
m3660 -124 c407 -67 634 -273 722 -659 23 -101 23 -405 0 -541 -33 -192 -103
-430 -187 -640 -40 -102 -204 -440 -217 -448 -5 -3 -54 58 -109 136 -347 489
-771 957 -1244 1372 -127 111 -372 309 -477 385 -34 25 -61 50 -59 55 5 17
279 130 471 194 243 82 428 124 670 154 83 11 348 6 430 -8z m-1961 -634 c583
-393 1216 -1006 1681 -1626 111 -148 325 -460 325 -474 0 -10 -173 -247 -266
-364 -384 -485 -840 -930 -1349 -1318 -140 -107 -538 -379 -554 -379 -4 0 -68
41 -142 91 -730 496 -1440 1214 -1934 1956 l-67 102 48 68 c440 625 1103 1273
1789 1749 115 80 376 244 388 244 4 0 41 -22 81 -49z m-2469 -2583 c425 -599
1029 -1213 1660 -1685 99 -75 181 -139 183 -143 3 -9 -230 -115 -383 -175
-402 -156 -734 -227 -1059 -226 -441 1 -727 147 -871 446 -157 326 -132 763
76 1323 49 134 273 603 287 601 4 0 52 -63 107 -141z m4783 -85 c141 -305 234
-591 283 -870 26 -148 36 -398 20 -515 -61 -454 -317 -712 -764 -768 -318 -40
-786 50 -1227 235 -103 43 -340 158 -340 164 1 3 44 35 98 71 574 384 1213
978 1681 1565 75 94 147 187 161 207 14 21 27 34 31 30 3 -4 29 -57 57 -119z"/>
<path d="M1553 12436 c-168 -32 -305 -101 -424 -214 -348 -327 -370 -855 -51
-1193 327 -348 855 -370 1193 -51 444 418 335 1127 -212 1387 -151 71 -354
100 -506 71z"/>
<path d="M19388 12315 c-176 -34 -311 -106 -443 -239 -300 -303 -338 -755 -91
-1100 219 -306 632 -433 983 -301 222 84 417 283 500 511 76 212 65 460 -32
654 -144 293 -416 471 -740 485 -64 3 -128 -1 -177 -10z"/>
<path d="M19268 8935 c-176 -34 -311 -106 -443 -239 -300 -303 -338 -755 -91
-1100 219 -306 632 -433 983 -301 222 84 417 283 500 511 76 212 65 460 -32
654 -144 293 -416 471 -740 485 -64 3 -128 -1 -177 -10z m233 -425 c220 -42
377 -260 341 -476 -47 -284 -349 -444 -600 -317 -261 131 -318 451 -120 668
96 106 236 152 379 125z"/>
<path d="M1672 8359 c-119 -20 -248 -118 -304 -230 -123 -247 37 -556 312
-598 225 -36 444 124 479 349 26 161 -47 324 -185 415 -89 59 -196 82 -302 64z"/>
<path d="M15431 5239 c-584 -600 -1061 -1095 -1059 -1100 2 -5 298 -295 658
-645 360 -350 842 -820 1070 -1043 700 -686 1022 -997 1090 -1052 580 -467
1401 -450 1968 41 329 284 522 709 522 1145 0 369 -137 736 -377 1008 -55 63
-553 550 -1033 1011 -151 146 -1470 1426 -1631 1584 l-146 143 -1062 -1092z"/>
<path d="M10453 3136 c-168 -32 -305 -101 -424 -214 -348 -327 -370 -855 -51
-1193 327 -348 855 -370 1193 -51 444 418 335 1127 -212 1387 -151 71 -354
100 -506 71z"/>
<path d="M4115 2286 c-159 -39 -289 -182 -317 -350 -37 -223 125 -440 356
-478 223 -37 440 125 478 356 22 132 -27 273 -127 364 -113 103 -252 142 -390
108z"/>
</g>
</svg>
